<?xml version="1.0" standalone="no"?><!DOCTYPE svg PUBLIC "-//W3C//DTD SVG 1.1//EN" "http://www.w3.org/Graphics/SVG/1.1/DTD/svg11.dtd"><svg t="1534069704031" class="icon" style="" viewBox="0 0 1024 1024" version="1.1" xmlns="http://www.w3.org/2000/svg" p-id="9169" xmlns:xlink="http://www.w3.org/1999/xlink" width="50" height="50"><defs><style type="text/css"></style></defs><path d="M159.830688 652.867725h249.227513l97.52381 163.442681 95.717813-163.442681h252.839506l121.001763 347.654321H43.343915" fill="#87D8D2" p-id="9170"></path><path d="M744.070547 279.929453c0-133.643739-108.359788-241.100529-241.100529-241.100529S260.96649 146.285714 260.96649 279.929453c0 35.216931 7.223986 68.627866 20.76896 98.426808h-2.708995l223.943563 364.811288 223.943562-364.811288H722.398589c13.544974-29.798942 21.671958-63.209877 21.671958-98.426808zM506.582011 413.573192c-71.336861 0-130.031746-57.791887-130.031746-130.031746S435.24515 153.5097 506.582011 153.5097s130.031746 57.791887 130.031746 130.031746S577.918871 413.573192 506.582011 413.573192z" fill="#00BCB2" p-id="9171"></path></svg>