<?xml version="1.0" standalone="no"?><!DOCTYPE svg PUBLIC "-//W3C//DTD SVG 1.1//EN" "http://www.w3.org/Graphics/SVG/1.1/DTD/svg11.dtd"><svg t="1534069927014" class="icon" style="" viewBox="0 0 1024 1024" version="1.1" xmlns="http://www.w3.org/2000/svg" p-id="10928" xmlns:xlink="http://www.w3.org/1999/xlink" width="50" height="50"><defs><style type="text/css"></style></defs><path d="M1009.830158 696.086471l0-490.167478c0-105.696163-85.748901-191.445065-191.445065-191.445065L205.614931 14.473928C99.918767 14.473928 14.169866 100.222829 14.169866 205.918993l0 612.770163c0 105.696163 85.748901 191.445065 191.445065 191.445065l612.770163 0c94.141347 0 172.47084-68.112602 188.525953-157.632023-50.841193-22.014966-270.869224-117.007721-385.444352-171.741062-87.208457 105.696163-178.552322 169.06521-316.358712 169.06521C167.423222 849.826345 75.471208 765.050481 86.539506 661.178762c7.297779-68.112602 54.003563-179.525359 257.003445-160.429505 106.91246 9.973631 155.929208 30.042523 243.137665 58.868749 22.623114-41.35408 41.35408-86.965198 55.584749-135.373797L255.361457 424.24421l0-38.313339 191.445065 0 0-68.84238-233.528923 0L213.277599 274.883003l233.528923 0 0-99.371422c0 0 2.067704-15.568595 19.339114-15.568595l95.722532 0L561.868168 274.883003l248.975888 0 0 42.205488L561.868168 317.08849l0 68.84238 203.121511 0c-18.730966 76.01853-46.949044 145.833947-82.464901 206.7704C741.393527 613.986459 1009.830158 696.086471 1009.830158 696.086471L1009.830158 696.086471 1009.830158 696.086471 1009.830158 696.086471zM289.904276 784.146336C144.313589 784.146336 121.325585 692.315952 128.988253 653.880983c7.662668-38.191709 49.746526-88.059865 130.630241-88.059865 92.92505 0 176.241359 23.717781 276.220929 72.49127C465.780746 729.656254 379.423697 784.146336 289.904276 784.146336L289.904276 784.146336 289.904276 784.146336zM289.904276 784.146336" fill="#1296DB" p-id="10929"></path></svg>