<?xml version="1.0" standalone="no"?><!DOCTYPE svg PUBLIC "-//W3C//DTD SVG 1.1//EN" "http://www.w3.org/Graphics/SVG/1.1/DTD/svg11.dtd"><svg t="1534069858407" class="icon" style="" viewBox="0 0 1024 1024" version="1.1" xmlns="http://www.w3.org/2000/svg" p-id="9520" xmlns:xlink="http://www.w3.org/1999/xlink" width="50" height="50"><defs><style type="text/css"></style></defs><path d="M808.183422 704.338624H448.790123c-65.918871 0-123.710758-45.149912-139.964726-109.262786l-84.881834-344.042328c-10.835979-44.246914-50.567901-74.948854-95.717813-74.948854H53.276896c-15.35097 0-27.992945-12.641975-27.992945-27.992945 0-15.35097 12.641975-27.992945 27.992945-27.992946h74.948854c70.433862 0 131.837743 47.858907 148.994709 115.583775l84.881834 347.654321c9.932981 39.731922 45.149912 66.821869 85.784832 66.821869h359.393298c41.537919 0.902998 77.657848-27.089947 87.590829-66.821869l42.440917-170.666667c3.611993-13.544974 0.902998-27.089947-7.223986-38.828924-8.126984-10.835979-21.671958-17.156966-35.216931-17.156967H423.506173c-10.835979 0.902998-20.768959-3.611993-27.089947-12.641975-5.417989-9.029982-5.417989-20.768959 0-29.798942s16.253968-14.447972 27.089947-12.641975h471.365079c30.70194 0 59.597884 13.544974 78.560847 37.925926 18.962963 24.380952 25.283951 55.082892 18.059964 84.881834l-42.440917 170.666667c-15.35097 65.015873-74.045855 110.165785-140.867724 109.262786zM323.273369 838.885362c0 32.507937 19.865961 62.306878 49.664903 74.948853 29.798942 12.641975 65.015873 5.417989 87.590829-17.156966 23.477954-23.477954 29.798942-57.791887 17.156966-87.590829-12.641975-29.798942-41.537919-49.664903-74.948854-49.664903-43.343915-1.805996-79.463845 34.313933-79.463844 79.463845z m435.24515 0c0 44.246914 36.119929 80.366843 80.366843 80.366843s80.366843-36.119929 80.366843-80.366843-36.119929-80.366843-80.366843-80.366843c-44.246914-0.902998-80.366843 35.216931-80.366843 80.366843z m0 0" fill="#FF9F50" p-id="9521"></path><path d="M341.333333 390.095238h574.306879l-56.888889 228.458554H390.998236l-49.664903-228.458554z m0 0" fill="#FFCC99" p-id="9522"></path></svg>