<?xml version="1.0" standalone="no"?><!DOCTYPE svg PUBLIC "-//W3C//DTD SVG 1.1//EN" "http://www.w3.org/Graphics/SVG/1.1/DTD/svg11.dtd"><svg t="1534069647803" class="icon" style="" viewBox="0 0 1024 1024" version="1.1" xmlns="http://www.w3.org/2000/svg" p-id="8290" xmlns:xlink="http://www.w3.org/1999/xlink" width="50" height="50"><defs><style type="text/css"></style></defs><path d="M837.079365 485.813051c7.223986-1.805996 12.641975-6.320988 15.35097-11.738977 2.708995-5.417989 4.514991-10.835979 4.514991-17.156966s-2.708995-11.738977-6.320987-18.059965c-3.611993-5.417989-9.029982-9.932981-15.35097-13.544974-9.029982-2.708995-14.447972-7.223986-18.059965-12.641975-3.611993-5.417989-4.514991-11.738977-4.514991-18.059965 0.902998-6.320988 2.708995-11.738977 7.223986-17.156966 3.611993-5.417989 9.029982-9.029982 15.35097-10.835979 6.320988-1.805996 10.835979-6.320988 13.544973-11.738977 2.708995-5.417989 4.514991-11.738977 3.611993-17.156967-0.902998-5.417989-1.805996-10.835979-5.417989-15.35097-3.611993-4.514991-8.126984-7.223986-13.544974-7.223986H269.093474v544.507937h558.05291c5.417989 0 9.932981-2.708995 13.544974-7.223986 3.611993-4.514991 5.417989-9.932981 6.320988-15.35097 0.902998-5.417989 0-11.738977-2.708995-18.059965s-6.320988-10.835979-12.641975-13.544973c-8.126984-4.514991-14.447972-9.932981-18.962963-16.253968-3.611993-6.320988-5.417989-12.641975-5.41799-19.865962 0-6.320988 2.708995-12.641975 7.223986-18.059964 4.514991-5.417989 11.738977-9.932981 19.865961-11.738977 6.320988-2.708995 10.835979-6.320988 13.544974-11.738978 2.708995-5.417989 4.514991-11.738977 3.611993-18.059964 0-7.223986-2.708995-13.544974-6.320988-19.865961-3.611993-6.320988-9.029982-10.835979-15.35097-13.544974-14.447972-7.223986-20.768959-17.156966-19.865961-29.798942 0.902998-12.641975 9.932981-22.574956 27.992945-31.604938 5.417989-2.708995 9.932981-7.223986 12.641976-12.641975 2.708995-5.417989 4.514991-11.738977 3.611993-18.059965 0-6.320988-2.708995-12.641975-6.320988-18.962963-3.611993-5.417989-9.029982-9.932981-16.253968-12.641975-8.126984-2.708995-13.544974-7.223986-18.059965-14.447972-3.611993-6.320988-5.417989-13.544974-5.417989-19.865961 0.902998-6.320988 2.708995-12.641975 7.223985-18.962963 6.320988-7.223986 13.544974-10.835979 21.671958-13.544974zM70.433862 315.146384c-22.574956 0-36.119929 4.514991-42.440917 12.641976-7.223986 8.126984-9.932981 22.574956-9.93298 41.537919v115.583774c0 8.126984 1.805996 13.544974 5.417989 17.156966 3.611993 3.611993 9.029982 5.417989 17.156967 7.223986 9.932981 0.902998 19.865961 7.223986 27.992945 16.253969 9.029982 9.029982 13.544974 22.574956 13.544974 38.828924 0 10.835979-1.805996 19.865961-5.41799 27.992945-3.611993 8.126984-8.126984 13.544974-12.641975 18.059965-4.514991 4.514991-9.932981 8.126984-14.447972 10.835979-5.417989 1.805996-9.029982 3.611993-11.738977 3.611993-8.126984 1.805996-12.641975 4.514991-15.35097 8.126984-3.611993 3.611993-4.514991 9.029982-4.514991 17.156966v156.218695c0 19.865961 3.611993 34.313933 11.738977 41.537919 8.126984 7.223986 21.671958 10.835979 40.63492 9.932981 5.417989 0 16.253968 0 31.604939 0.902998 15.35097 0 30.70194 0.902998 46.05291 0.902998h58.694885V315.146384H70.433862z" fill="#FF5F5F" p-id="8291"></path><path d="M629.389771 464.141093c-1.805996 2.708995-5.417989 8.126984-11.738977 16.253969-6.320988 9.029982-13.544974 18.059965-20.76896 27.992945-7.223986 9.029982-13.544974 18.059965-19.865961 27.992945-6.320988 9.029982-9.029982 13.544974-9.932981 15.35097-1.805996 3.611993-0.902998 5.417989 2.708995 6.320988 3.611993 0.902998 8.126984 0.902998 10.835979 0.902998h36.119929c3.611993 0 6.320988 0.902998 9.029983 4.514991 2.708995 2.708995 3.611993 5.417989 3.611993 9.029983v26.186949c0 5.417989-3.611993 7.223986-10.835979 7.223986h-63.209877c-2.708995 0-5.417989 0.902998-8.126984 2.708994-2.708995 1.805996-3.611993 3.611993-3.611993 6.320988v9.029982c0 3.611993 0.902998 6.320988 0.902999 8.126984 0 4.514991 3.611993 5.417989 10.835978 4.514992h62.306879c7.223986 0 10.835979 3.611993 10.835978 9.93298v24.380953c0 7.223986-5.417989 10.835979-15.35097 10.835978h-13.544973c-5.417989 0-11.738977 0-17.156967 0.902999-6.320988 0.902998-11.738977 0.902998-16.253968 0.902998h-9.93298c-6.320988 0-9.932981 3.611993-9.932981 10.835979v43.343915c0 3.611993-2.708995 5.417989-9.029982 5.41799h-34.313933c-9.029982 0-13.544974-3.611993-13.544974-11.738978 0-2.708995 0-9.029982 0.902998-18.962963 0.902998-9.029982 0-16.253968-0.902998-19.865961 0-3.611993 0-6.320988-0.902998-7.223986-0.902998-0.902998-2.708995-1.805996-6.320988-1.805996h-64.112875c-9.029982 0-13.544974-4.514991-13.544973-14.447972 0-1.805996 0-4.514991-0.902998-8.126984-0.902998-2.708995-0.902998-6.320988 0-9.932981 0.902998-3.611993 1.805996-7.223986 3.611993-9.93298 1.805996-2.708995 4.514991-3.611993 8.126984-2.708995h71.33686c1.805996 0 1.805996-1.805996 1.805997-5.417989v-20.76896c0-3.611993-4.514991-5.417989-12.641975-5.417989H406.349206c-1.805996 0-3.611993-2.708995-3.611993-6.320988V586.948854c0-5.417989 0-9.932981-0.902998-12.641976-1.805996-4.514991 0-8.126984 2.708995-10.835979 3.611993-2.708995 8.126984-4.514991 13.544973-4.514991 5.417989 0.902998 11.738977 0.902998 18.962963 0.902999 6.320988 0 11.738977-0.902998 15.35097-0.902999h12.641976c4.514991 0 5.417989-1.805996 4.514991-4.514991-1.805996-1.805996-5.417989-7.223986-12.641975-16.253968-7.223986-9.932981-14.447972-18.962963-22.574956-29.798942-9.029982-12.641975-19.865961-26.186949-32.507937-40.634921-4.514991-8.126984-3.611993-14.447972 3.611993-19.865961 3.611993-1.805996 7.223986-4.514991 10.835979-8.126984 3.611993-3.611993 8.126984-6.320988 13.544973-9.029982 7.223986-4.514991 13.544974 0 19.865962 11.738977 1.805996 2.708995 6.320988 8.126984 12.641975 16.253968s12.641975 15.35097 18.962963 24.380952c5.417989 8.126984 11.738977 15.35097 18.059965 23.477955 5.417989 7.223986 9.029982 10.835979 9.93298 12.641975 1.805996 2.708995 3.611993 4.514991 8.126984 5.417989 3.611993 0.902998 6.320988-0.902998 8.126985-3.611993 0.902998-1.805996 3.611993-6.320988 9.029982-13.544973s10.835979-16.253968 17.156966-25.283951c6.320988-9.029982 12.641975-18.059965 18.059965-27.089947 5.417989-8.126984 9.029982-13.544974 10.835979-15.35097 3.611993-5.417989 6.320988-8.126984 9.029982-9.932981 2.708995-1.805996 6.320988-0.902998 12.641976 0.902999 3.611993 1.805996 7.223986 3.611993 11.738977 6.320987 4.514991 2.708995 7.223986 5.417989 9.029982 6.320988 7.223986 8.126984 9.932981 15.35097 6.320988 20.768959zM306.116402 179.696649H158.92769c-12.641975 0-24.380952 6.320988-36.11993 18.962963-10.835979 12.641975-16.253968 26.186949-16.253968 40.634921v27.992945h199.56261v-87.590829z" fill="#FFC8C7" p-id="8292"></path><path d="M961.693122 380.162257c3.611993-5.417989 9.029982-9.932981 17.156966-12.641975 7.223986-2.708995 12.641975-7.223986 16.253968-14.447972 3.611993-6.320988 6.320988-13.544974 6.320988-21.671957 0-7.223986-1.805996-15.35097-6.320988-22.574956-3.611993-7.223986-9.932981-13.544974-17.156966-18.059965-5.417989-2.708995-9.932981-7.223986-11.738977-13.544973-1.805996-6.320988-2.708995-12.641975-2.708995-18.962963 0.902998-6.320988 1.805996-11.738977 5.41799-18.059965 2.708995-5.417989 7.223986-10.835979 10.835978-14.447972 5.417989-3.611993 8.126984-8.126984 9.932981-13.544973 1.805996-5.417989 1.805996-10.835979 0.902998-15.35097-0.902998-5.417989-3.611993-9.029982-7.223986-12.641976-3.611993-3.611993-7.223986-5.417989-12.641975-5.417989H371.132275v85.784832h512c9.932981 0 18.059965 2.708995 24.380953 9.029983 6.320988 5.417989 9.932981 12.641975 12.641975 19.865961 2.708995 9.029982 3.611993 19.865961 2.708995 30.70194-0.902998 10.835979-8.126984 19.865961-19.865962 26.186949-5.417989 3.611993-9.932981 9.029982-13.544973 15.35097-2.708995 6.320988-4.514991 13.544974-4.514991 20.768959 0 7.223986 1.805996 14.447972 4.514991 21.671958 2.708995 7.223986 8.126984 11.738977 15.35097 15.35097 6.320988 3.611993 10.835979 8.126984 13.544973 13.544973 2.708995 5.417989 3.611993 10.835979 3.611993 17.156967-0.902998 5.417989-1.805996 10.835979-4.514991 16.253968-2.708995 5.417989-6.320988 9.029982-10.835979 11.738977-6.320988 4.514991-10.835979 9.932981-13.544973 17.156967-2.708995 7.223986-4.514991 13.544974-4.514991 21.671957 0 7.223986 1.805996 13.544974 4.514991 18.962963 3.611993 6.320988 8.126984 9.932981 13.544973 13.544974 4.514991 1.805996 7.223986 6.320988 9.932981 11.738977 1.805996 5.417989 2.708995 11.738977 2.708995 18.059965s-1.805996 12.641975-4.514992 18.059964c-2.708995 5.417989-7.223986 9.932981-12.641975 11.738977-4.514991 1.805996-7.223986 5.417989-9.932981 10.835979-1.805996 5.417989-3.611993 10.835979-3.611992 17.156967s0.902998 12.641975 2.708994 18.962963c2.708995 6.320988 6.320988 10.835979 11.738977 13.544973 9.029982 5.417989 14.447972 10.835979 18.059965 18.059965 3.611993 7.223986 3.611993 16.253968 0 26.186949-1.805996 2.708995-3.611993 5.417989-5.417989 7.223986-1.805996 2.708995-3.611993 4.514991-5.41799 6.320987-0.902998 1.805996-1.805996 2.708995-1.805996 3.611993 0 0.902998 2.708995 0.902998 6.320987 0.902999h57.791888c7.223986 0 11.738977-1.805996 15.35097-6.320988 2.708995-4.514991 4.514991-9.029982 4.514991-15.35097s-0.902998-11.738977-3.611993-17.156967c-2.708995-5.417989-5.417989-9.932981-8.126984-11.738977-14.447972-10.835979-21.671958-21.671958-21.671958-32.507936 0-10.835979 7.223986-20.768959 21.671958-28.895944 4.514991-2.708995 7.223986-8.126984 9.93298-14.447971 1.805996-6.320988 2.708995-13.544974 2.708995-20.76896 0-7.223986-1.805996-14.447972-5.417989-20.768959-2.708995-6.320988-8.126984-10.835979-13.544974-12.641976-5.417989-1.805996-9.932981-6.320988-12.641975-11.738977-2.708995-5.417989-3.611993-10.835979-3.611993-17.156966 0-5.417989 1.805996-10.835979 3.611993-15.35097 2.708995-4.514991 6.320988-8.126984 12.641975-9.029983 6.320988-0.902998 10.835979-4.514991 14.447972-9.93298 2.708995-6.320988 4.514991-12.641975 5.417989-19.865961 0-7.223986-0.902998-14.447972-4.514991-21.671958-2.708995-7.223986-8.126984-13.544974-15.35097-17.156967-7.223986-4.514991-12.641975-9.932981-15.35097-16.253968-2.708995-6.320988-4.514991-12.641975-4.514991-18.962963 1.805996-6.320988 3.611993-12.641975 7.223986-18.059965z m0 0" fill="#FFC8C7" p-id="8293"></path></svg>