<?xml version="1.0" standalone="no"?><!DOCTYPE svg PUBLIC "-//W3C//DTD SVG 1.1//EN" "http://www.w3.org/Graphics/SVG/1.1/DTD/svg11.dtd"><svg t="1534069540565" class="icon" style="" viewBox="0 0 1024 1024" version="1.1" xmlns="http://www.w3.org/2000/svg" p-id="7822" xmlns:xlink="http://www.w3.org/1999/xlink" width="50" height="50"><defs><style type="text/css"></style></defs><path d="M749.85253559 864.10496898v-275.42321398l-158.64376899 1.32203215v272.77914966h37.89823439l1.32203219-231.35549955h80.64391663v232.67753172zM894.39463857 312.81786717l19.83047199 66.98292452 11.01692773 32.61010927c0 3.96609305 6.16947988 24.67791979 7.93218945 24.67791972 7.05083473 0 31.72875446-18.94911716 40.10162134-20.71182671l1.3220288-0.44067737-22.91521031-72.27104978-15.86437548-48.03381081 0.8813513-1.32202876-42.30500482 18.50843992zM644.09002179 370.9872475l3.08474168-11.89828253 1.76270954 0.4406774v-3.96609308s11.45760514-32.61010924 12.77963727-38.77958919l-37.89823448-23.35588758-45.38974648 126.91501447 42.74568221 18.06776249 22.91521026-67.42360198zM61.95552015 173.56388926v113.25402596h46.71177527v-116.77944497l-20.27114593-0.44067402 51.55922306-104.88116241h-51.99990046c-3.52541565 15.86437556-40.10162132 74.4744367-40.1016213 81.96594874v25.99995199h5.28812517c4.40677042-0.44067738 4.84744782 0.44067738 8.81354419 0.88135471zM839.75067386 758.78313254c4.40677042-7.93218948 25.55927455-51.99990386 25.55927456-59.49141249l-32.16943185-18.9491172c-1.32203217 0.88135481-62.57615421 136.6099135-62.57615423 139.25397436v41.42365355h146.74548992V818.27454505c0-3.52541565-9.25422163-25.99995195-11.01693119-30.8473997-2.6440643-7.49151212-11.01692775-25.99995195-11.45760505-32.61010585l-35.25417017 16.74573032 13.66099204 37.01687966-1.32203217 0.44067742c4.40677042 1.76270949 3.96609305 5.72880253 3.96609303 11.89828249H813.31004461v-3.96609309c0.44067738 0.44067738 24.23724238-53.76260997 26.44062925-58.16938376z" fill="#F2254D" p-id="7823"></path><path d="M687.27638142 853.52871861v-176.71153483h-31.28807715c-7.05083473 0-3.96609305 34.81349275-3.96609302 42.74568217v144.10142566c-7.93218948 5.28812522-75.35579151 54.64396473-75.35579144 58.61006115 0 4.40677042 12.77963728 37.89823443 14.10166941 37.89823445 4.84744782 0 81.5252714-63.89818638 83.28798093-63.89818638 3.08474166 0 45.83042388 33.93214142 50.67786835 33.93214143 3.08474166 0 31.72875446-21.59318146 32.61010922-24.67792319-6.16947988-1.76270949-70.06766628-48.47448481-70.0676663-51.99990046zM227.20944653 304.4450002v41.42365014h-176.71153148v46.71177862H227.20944653v48.0338074h44.06771438v-44.06771435c0-3.08474166 0.88135481-3.96609305 3.96609647-3.96609305h162.60986198v-46.71177862H271.27716091v-41.42365014h-44.06771438zM323.27706473 95.56403353v-29.96604496h-48.03380735v45.38974652h-5.28812865s-53.76260997 13.66099204-57.72870298 15.4236981c-4.40677042 1.76270949-56.40667425 14.54234681-59.49141595 14.54234685v44.06771433l37.45755705-9.69489554 84.61001309-20.27114942V285.05520562h159.96580116v-45.38974652h-111.93199378v-98.71167906h5.28812521l0.44067733-1.32203216 56.84735168-14.10166599 3.96609306-1.76270953 42.30500481-10.13557297 2.20338693-2.6440643 8.37286687-46.27110127-118.98282848 32.16943185v-1.32203214zM830.05577827 600.1393602l8.3728634-29.96604502-40.10161786 5.2881252-36.57620571 128.67772749 40.10162135-2.64406433c2.6440643-11.45760514 6.16947988-14.1016694 7.93218949-28.6440128 0.44067738-4.84744782 5.72880253-27.3219841 10.13557295-27.32198406h119.42350589l-5.28812524 262.64357668v7.93218943H813.31004461v45.38974315h163.05054279l6.16947993-357.38915936v-3.96609638h-152.47428906zM61.95552015 764.07125774h371.49082877v-171.42340627h-371.49082877v171.42340627z m41.86432749-66.54224727h263.96560886V659.6307761H103.81984764v-28.64401287h288.64352858V725.73234591H103.81984764v-28.20333544zM309.17539532 844.71517438c-3.52541565 0-53.32193259 38.77958919-59.9320899 43.627037-5.72880253 4.40677042-59.49141249 44.50839174-59.49141592 45.83042389 0 3.08474166 27.3219841 27.3219841 27.32198409 27.32198067 3.08474166 0 52.8812586-39.66094397 59.05073509-44.94906575 6.16947988-5.28812522 55.96599685-43.62703697 59.05073857-44.94906913-1.32203217-3.08474166-23.79656499-26.88130672-25.99995193-26.88130668z" fill="#F2254D" p-id="7824"></path><path d="M115.27745276 779.9356367c-14.98302415 1.32203217-28.20333541 4.84744782-40.9829727 4.8474478l-26.88130664 100.03371124c7.05083473 0 42.74568227-6.16947988 44.06771435-9.2542216 3.96609305-7.05083473 7.05083473-40.10162132 13.22031465-40.10161793l71.83037235 0.44067734-129.11840135 104.44048163 33.49146399 21.15250076c6.16947988-3.52541565 33.0507866-25.11859712 39.22026319-30.84739977 11.01692775-10.13557295 27.3219841-23.35588765 39.22026649-32.16942839 9.25422163-6.6101573 75.79646885-63.01683154 78.88120716-63.01683157H394.66675974l-11.0169277 81.96594876v3.96609302H315.34487524v41.42365003h107.96590073v-10.57625035h1.76270612l12.33896329-112.81334843V796.24068959h-326.54176303l4.40677041-16.30505289zM635.27648097 120.24195334c-5.72880253 12.33895989-42.74568227 101.3557434-42.74568222 110.60996495v40.10161792h175.3894993c3.08474166 0 3.96609305 0.88135481 3.96609642 3.96609647v116.77944152c0 3.08474166-0.88135481 3.96609305-3.96609642 3.966093H681.10690149v42.74568228h135.28788471v-167.45731327h142.7793935v-45.38974309H817.71681497v-77.99985577h-45.38974311v77.99985577l-131.76246573-0.44067739 40.9829727-106.20319118h288.64352859V73.53017803h-266.60966967l5.28812514-18.06776245-46.71177863-2.64406433c0 6.6101573-4.84744782 20.71182676-9.25421821 20.71182678h-66.1015699v42.74568224c-0.88135481 7.05083473 40.10162132 3.96609305 48.47448482 3.96609307z" fill="#F2254D" p-id="7825"></path></svg>