<?xml version="1.0" standalone="no"?><!DOCTYPE svg PUBLIC "-//W3C//DTD SVG 1.1//EN" "http://www.w3.org/Graphics/SVG/1.1/DTD/svg11.dtd"><svg t="1534069635637" class="icon" style="" viewBox="0 0 1024 1024" version="1.1" xmlns="http://www.w3.org/2000/svg" p-id="8115" xmlns:xlink="http://www.w3.org/1999/xlink" width="50" height="50"><defs><style type="text/css"></style></defs><path d="M507.56224877 978.28985222c-126.5369647 0-245.70705068-49.40141774-335.19295208-138.88731914s-138.88731915-208.43931439-138.88731747-335.1929521 49.40141774-245.70705068 138.88731747-335.1929504c89.48590142-89.48590142 208.43931439-138.88731915 335.19295208-138.88731912 157.73786031 0 304.64207551 78.21891028 393.04461188 208.87266037 52.8681841 78.43558331 81.03565934 170.08821306 81.03565767 264.99093617 0 139.10399215-60.88508017 270.84110556-166.8381197 360.97702594-85.58578905 73.2354346-194.5722506 113.31991826-307.24214985 113.31991828z m0-913.05953283c-242.24028432 0-439.19593626 196.95565194-439.19593627 439.19593462 0 242.24028432 196.95565194 439.19593626 439.19593627 439.19593625 104.21965721 0 205.40589401-37.26773631 284.70816932-104.65300319 98.36948946-83.6357337 154.70443994-205.62256703 154.70443994-334.54293306 0-87.96919039-26.00074688-172.90496208-74.9688186-245.49037769-82.11902266-121.33681433-218.18959445-193.70555858-364.44379066-193.70555693z" fill="#E7E7E8" p-id="8116"></path><path d="M964.30868818 521.76008582c-9.53360709 0-17.33383013-7.80022307-17.33383015-17.33383181 0-87.96919039-26.00074688-172.90496208-74.9688186-245.49037769-81.90234967-121.33681433-218.18959445-193.70555858-364.22711766-193.70555693-9.53360709 0-17.33383013-7.80022307-17.33383013-17.33383181s7.80022307-17.33383013 17.33383013-17.33383013c157.73786031 0 304.64207551 78.21891028 393.0446119 208.8726604 52.8681841 78.43558331 81.03565934 170.08821306 81.03565767 264.99093616-0.21667299 9.53360709-8.01689606 17.33383013-17.55050316 17.33383181zM507.56224877 978.28985222c-126.5369647 0-245.70705068-49.40141774-335.19295208-138.88731914s-138.88731915-208.43931439-138.88731747-335.1929521c0-9.53360709 7.80022307-17.33383013 17.33383014-17.33383011s17.33383013 7.80022307 17.33383015 17.33383011c0 242.24028432 196.95565194 439.19593626 439.19593626 439.19593629 9.53360709 0 17.33383013 7.80022307 17.33383015 17.33383014s-7.36687872 17.55050314-17.11715715 17.55050481z" fill="#F2254D" p-id="8117"></path></svg>