<?xml version="1.0" standalone="no"?><!DOCTYPE svg PUBLIC "-//W3C//DTD SVG 1.1//EN" "http://www.w3.org/Graphics/SVG/1.1/DTD/svg11.dtd"><svg t="1534069668191" class="icon" style="" viewBox="0 0 1024 1024" version="1.1" xmlns="http://www.w3.org/2000/svg" p-id="8641" xmlns:xlink="http://www.w3.org/1999/xlink" width="50" height="50"><defs><style type="text/css"></style></defs><path d="M835.273369 953.566138H184.21164c-59.597884 0-108.359788-48.761905-108.359788-108.359789V194.144621c0-59.597884 48.761905-108.359788 108.359788-108.359789h651.061729c59.597884 0 108.359788 48.761905 108.359788 108.359789v651.061728c0 59.597884-48.761905 108.359788-108.359788 108.359789z" fill="#FF5F5F" p-id="8642"></path><path d="M673.636684 809.989418c-6.320988 0-14.447972-1.805996-20.768959-5.417989l-142.673721-71.336861-143.57672 71.336861c-14.447972 8.126984-32.507937 6.320988-46.05291-3.611993-13.544974-9.932981-20.768959-27.089947-17.156967-44.246914l29.798942-153.5097-113.777778-104.747796c-11.738977-11.738977-16.253968-30.70194-11.738977-46.05291 5.417989-16.253968 18.962963-28.895944 36.11993-30.70194l157.121693-28.895943 70.433862-142.673722c8.126984-15.35097 23.477954-25.283951 39.731923-25.28395 16.253968 0 32.507937 9.932981 39.731922 25.28395l70.433863 142.673722 157.121693 27.089947c16.253968 1.805996 30.70194 14.447972 35.216931 30.70194 5.417989 16.253968 0.902998 34.313933-10.835979 46.05291L688.084656 604.10582l28.895944 153.5097c3.611993 17.156966-4.514991 34.313933-17.156967 44.246914-7.223986 5.417989-16.253968 8.126984-26.186949 8.126984z m0 0" fill="#FFC8C7" p-id="8643"></path></svg>