<?xml version="1.0" standalone="no"?><!DOCTYPE svg PUBLIC "-//W3C//DTD SVG 1.1//EN" "http://www.w3.org/Graphics/SVG/1.1/DTD/svg11.dtd"><svg t="1534069681396" class="icon" style="" viewBox="0 0 1024 1024" version="1.1" xmlns="http://www.w3.org/2000/svg" p-id="8816" xmlns:xlink="http://www.w3.org/1999/xlink" width="50" height="50"><defs><style type="text/css"></style></defs><path d="M770.257496 510.194004c-120.098765 0-218.525573 97.52381-218.525574 218.525573s97.52381 218.525573 218.525574 218.525573 218.525573-97.52381 218.525573-218.525573-98.426808-218.525573-218.525573-218.525573z m1.805996 348.557319C733.234568 772.96649 641.128748 728.719577 641.128748 728.719577c95.717813-43.343915 130.934744-130.934744 130.934744-130.934745C829.855379 698.017637 902.998236 728.719577 902.998236 728.719577s-80.366843 44.246914-130.934744 130.031746z" fill="#FBD99F" p-id="8817"></path><path d="M448.790123 93.008818C218.525573 93.008818 31.604938 279.929453 31.604938 510.194004c0 230.26455 186.920635 417.185185 417.185185 417.185185 230.26455 0 417.185185-186.920635 417.185186-417.185185 0-230.26455-186.017637-417.185185-417.185186-417.185186z m4.514992 667.315697C379.259259 595.978836 203.174603 510.194004 203.174603 510.194004c183.308642-82.17284 250.130511-250.130511 250.130512-250.130512 109.262787 192.338624 250.130511 250.130511 250.130511 250.130512S549.022928 595.978836 453.305115 760.324515z" fill="#FFC01D" p-id="8818"></path></svg>