<?xml version="1.0" standalone="no"?><!DOCTYPE svg PUBLIC "-//W3C//DTD SVG 1.1//EN" "http://www.w3.org/Graphics/SVG/1.1/DTD/svg11.dtd"><svg t="1534069659593" class="icon" style="" viewBox="0 0 1024 1024" version="1.1" xmlns="http://www.w3.org/2000/svg" p-id="8466" xmlns:xlink="http://www.w3.org/1999/xlink" width="50" height="50"><defs><style type="text/css"></style></defs><path d="M153.5097 298.892416c2.708995-7.223986 6.320988-12.641975 10.835979-17.156966-0.902998-20.768959 0-40.634921 2.708995-62.306879 2.708995-17.156966 6.320988-35.216931 12.641975-55.082892 5.417989-19.865961 14.447972-37.925926 26.186949-53.276896 9.932981-15.35097 21.671958-27.992945 34.313933-37.022928 12.641975-9.932981 25.283951-17.156966 38.828924-22.574956 12.641975-5.417989 26.186949-9.029982 39.731922-10.835978 13.544974-1.805996 26.186949-2.708995 38.828925-2.708995 31.604938 0 60.500882 6.320988 85.784832 19.865961 25.283951 13.544974 44.246914 27.992945 56.888889 43.343915 8.126984 10.835979 13.544974 20.768959 15.35097 29.798942 1.805996 9.029982 5.417989 19.865961 9.029982 31.604939-11.738977 7.223986-25.283951 17.156966-38.828924 30.70194s-25.283951 27.089947-36.119929 41.537918c-12.641975 18.059965-22.574956 37.925926-28.895944 59.597884-6.320988 21.671958-10.835979 41.537919-14.447972 60.500882-3.611993 22.574956-4.514991 44.246914-4.514991 66.821869-5.417989 5.417989-9.029982 11.738977-11.738977 18.962963-2.708995 6.320988-4.514991 13.544974-4.514991 22.574956-0.902998 9.029982 0.902998 18.059965 3.611993 27.992946 3.611993 10.835979 6.320988 18.962963 10.835979 24.380952 3.611993 5.417989 7.223986 9.932981 10.835979 13.544973 3.611993 3.611993 7.223986 6.320988 11.738977 7.223986 2.708995 9.932981 5.417989 19.865961 7.223985 28.895944 2.708995 7.223986 5.417989 15.35097 9.029983 23.477954 3.611993 8.126984 8.126984 13.544974 12.641975 18.059965 4.514991 3.611993 8.126984 7.223986 10.835979 9.93298 2.708995 2.708995 4.514991 4.514991 6.320988 7.223986 1.805996 1.805996 2.708995 5.417989 2.708994 9.029983s0.902998 9.029982 2.708995 15.35097c-0.902998 7.223986-2.708995 12.641975-4.514991 16.253968-1.805996 3.611993-6.320988 8.126984-13.544974 12.641975-16.253968 9.932981-34.313933 18.059965-53.276896 24.380953-18.962963 6.320988-37.022928 13.544974-55.082892 20.768959-17.156966 7.223986-32.507937 18.059965-46.05291 29.798942-12.641975 12.641975-20.768959 29.798942-24.380952 53.276896-0.902998 7.223986-1.805996 13.544974-2.708995 20.768959 0 6.320988-0.902998 12.641975-1.805997 18.962963-0.902998 0.902998-0.902998 2.708995-1.805996 3.611993 0 0 0 0.902998-0.902998 1.805997-24.380952-1.805996-49.664903-4.514991-74.948854-6.320988-25.283951-2.708995-48.761905-5.417989-70.433862-9.029982-21.671958-3.611993-39.731922-6.320988-54.179895-9.932981-14.447972-3.611993-23.477954-6.320988-27.992945-9.932981-5.417989-4.514991-9.932981-18.059965-12.641975-39.731922-2.708995-22.574956-1.805996-51.470899 3.611993-86.687831 3.611993-19.865961 11.738977-35.216931 24.380952-45.149911 12.641975-10.835979 28.895944-18.962963 46.05291-24.380953 18.059965-6.320988 36.119929-11.738977 55.082893-16.253968 18.962963-5.417989 35.216931-11.738977 49.664903-20.76896 11.738977-7.223986 19.865961-14.447972 26.186948-20.768959 6.320988-6.320988 9.932981-12.641975 12.641976-19.865961 2.708995-6.320988 3.611993-13.544974 3.611993-20.76896 0-7.223986 0-14.447972-0.902999-22.574956-0.902998-12.641975-5.417989-22.574956-12.641975-29.798941-7.223986-7.223986-15.35097-14.447972-24.380952-22.574956-5.417989-3.611993-9.029982-8.126984-12.641976-15.35097-3.611993-7.223986-6.320988-14.447972-9.029982-20.76896-2.708995-7.223986-5.417989-16.253968-7.223986-26.186949-3.611993-0.902998-7.223986-3.611993-11.738977-5.417989-3.611993-2.708995-6.320988-6.320988-9.93298-11.738977-3.611993-5.417989-7.223986-11.738977-9.932981-20.768959" fill="#D9BBEA" p-id="8467"></path><path d="M982.462081 823.534392c2.708995 9.029982 4.514991 19.865961 6.320988 32.507936 1.805996 12.641975 2.708995 25.283951 2.708994 38.828924s-0.902998 25.283951-2.708994 37.022928c-1.805996 11.738977-4.514991 19.865961-9.029983 26.186949-2.708995 3.611993-9.932981 7.223986-22.574955 11.738977-12.641975 3.611993-27.992945 7.223986-46.052911 10.835979-18.059965 3.611993-38.828924 6.320988-61.40388 9.029982-22.574956 2.708995-44.246914 5.417989-67.724867 7.223986-22.574956 1.805996-44.246914 3.611993-65.015873 4.514991s-39.731922 1.805996-55.082893 1.805997c-16.253968 0-34.313933-0.902998-55.082892-1.805997s-42.440917-2.708995-64.112875-4.514991c-22.574956-1.805996-44.246914-3.611993-65.918871-6.320988-21.671958-1.805996-41.537919-4.514991-59.597884-7.223986-18.059965-2.708995-33.410935-5.417989-46.05291-9.029982-12.641975-2.708995-19.865961-5.417989-23.477954-8.126984-5.417989-4.514991-9.029982-18.059965-12.641975-39.731923-3.611993-22.574956-1.805996-50.567901 2.708994-85.784832 3.611993-20.768959 11.738977-35.216931 24.380953-46.05291 12.641975-9.932981 28.895944-18.059965 46.05291-24.380952 18.059965-6.320988 36.119929-11.738977 55.082892-16.253969 18.962963-4.514991 35.216931-11.738977 49.664903-21.671957 11.738977-7.223986 19.865961-14.447972 26.186949-20.76896 6.320988-6.320988 10.835979-12.641975 13.544974-18.962963 2.708995-6.320988 4.514991-12.641975 4.514991-19.865961 0-7.223986 0-15.35097-0.902998-23.477954-0.902998-12.641975-5.417989-22.574956-13.544974-29.798942-7.223986-7.223986-16.253968-14.447972-24.380952-21.671958-4.514991-3.611993-8.126984-9.029982-11.738977-16.253968s-6.320988-14.447972-9.029983-20.768959c-2.708995-7.223986-5.417989-16.253968-7.223986-26.186949-3.611993-0.902998-7.223986-3.611993-11.738977-5.41799-3.611993-2.708995-6.320988-6.320988-9.93298-11.738977-3.611993-5.417989-7.223986-11.738977-9.932981-20.768959-3.611993-9.029982-4.514991-17.156966-3.611993-25.283951 0.902998-8.126984 1.805996-14.447972 4.514991-19.865961 2.708995-6.320988 6.320988-11.738977 10.835979-17.156966-0.902998-20.768959 0-40.634921 2.708995-62.306879 2.708995-18.059965 6.320988-36.119929 11.738977-55.98589 5.417989-18.962963 13.544974-37.022928 25.283951-54.179894 9.932981-15.35097 21.671958-27.992945 34.313933-37.022928 12.641975-9.932981 26.186949-17.156966 38.828924-22.574956 13.544974-5.417989 27.089947-9.029982 39.731922-10.835979 13.544974-1.805996 26.186949-2.708995 37.925926-2.708995 32.507937 0 61.40388 6.320988 86.687831 19.865962 25.283951 13.544974 44.246914 27.992945 55.98589 43.343915 13.544974 17.156966 24.380952 36.119929 30.70194 57.791887 6.320988 21.671958 11.738977 41.537919 14.447972 59.597884 3.611993 21.671958 4.514991 43.343915 3.611993 65.015873 3.611993 2.708995 6.320988 6.320988 9.029982 10.835979 1.805996 3.611993 3.611993 9.029982 5.41799 14.447971 1.805996 6.320988 1.805996 13.544974 0.902998 22.574956-0.902998 11.738977-3.611993 20.768959-7.223986 27.992946-3.611993 7.223986-7.223986 12.641975-11.738977 16.253968-4.514991 4.514991-9.932981 7.223986-15.35097 9.029982-2.708995 9.932981-5.417989 18.059965-7.223986 26.186949-2.708995 7.223986-5.417989 13.544974-9.93298 20.768959-3.611993 7.223986-8.126984 11.738977-12.641976 15.35097-5.417989 4.514991-9.932981 8.126984-13.544973 11.738978-4.514991 3.611993-8.126984 6.320988-10.835979 9.93298-3.611993 3.611993-6.320988 7.223986-8.126984 11.738977-1.805996 4.514991-3.611993 9.932981-5.41799 16.253968-0.902998 8.126984-1.805996 16.253968-1.805996 25.283951 0 9.029982 2.708995 17.156966 6.320988 25.283951 3.611993 8.126984 9.932981 16.253968 18.962963 23.477954s20.768959 14.447972 36.119929 19.865961c13.544974 5.417989 27.992945 10.835979 44.246914 14.447972 16.253968 4.514991 31.604938 9.029982 46.955908 14.447972 15.35097 5.417989 27.992945 12.641975 39.731922 21.671957 12.641975 5.417989 21.671958 17.156966 26.186949 31.604939z" fill="#BA7CD8" p-id="8468"></path></svg>