<?xml version="1.0" standalone="no"?><!DOCTYPE svg PUBLIC "-//W3C//DTD SVG 1.1//EN" "http://www.w3.org/Graphics/SVG/1.1/DTD/svg11.dtd"><svg t="1534069890526" class="icon" style="" viewBox="0 0 1024 1024" version="1.1" xmlns="http://www.w3.org/2000/svg" p-id="10222" xmlns:xlink="http://www.w3.org/1999/xlink" width="50" height="50"><defs><style type="text/css"></style></defs><path d="M812.698413 434.342152h-67.724868V264.578483c0-61.40388-25.283951-118.292769-65.918871-158.024691-40.634921-40.634921-96.620811-65.918871-158.024692-65.918871H426.215168c-61.40388 0-118.292769 25.283951-158.024692 65.918871-40.634921 40.634921-65.918871 96.620811-65.918871 158.024691v169.763669h-67.724868c-32.507937 0-59.597884 27.089947-60.500882 59.597883V902.998236c0 33.410935 27.089947 60.500882 60.500882 60.500882h424.409171c-37.022928-43.343915-58.694885-99.329806-58.694885-160.733686 0-137.255732 111.068783-248.324515 248.324515-248.324515 45.149912 0 87.590829 11.738977 124.613757 33.410935V493.940035c-0.902998-32.507937-27.992945-59.597884-60.500882-59.597883z m-158.024692 0H291.66843V264.578483c0-37.022928 14.447972-70.433862 39.731923-94.814815 24.380952-24.380952 57.791887-39.731922 94.814815-39.731922h93.911816c37.022928 0 70.433862 14.447972 94.814815 39.731922 24.380952 24.380952 39.731922 57.791887 39.731922 94.814815v169.763669z" fill="#58C44D" p-id="10223"></path><path d="M946.342152 843.400353V758.518519h-49.664903c-2.708995-11.738977-8.126984-21.671958-13.544974-32.507937l35.216931-35.216931-60.500881-60.500882-35.216932 35.216931c-9.932981-5.417989-20.768959-9.932981-32.507936-13.544973v-49.664903H704.338624v49.664903c-11.738977 2.708995-21.671958 8.126984-32.507936 13.544973l-35.216931-35.216931-60.500882 60.500882 35.216931 35.216931c-5.417989 9.932981-9.932981 20.768959-13.544974 32.507937h-49.664903v85.784832h49.664903c2.708995 11.738977 8.126984 21.671958 13.544974 32.507936l-35.216931 35.216932 60.500882 60.500882 35.216931-35.216932c9.932981 5.417989 20.768959 9.932981 32.507936 13.544974v49.664903h84.881835v-49.664903c11.738977-2.708995 22.574956-8.126984 33.410934-13.544974l35.216932 35.216932 60.500881-60.500882-35.216931-36.11993c5.417989-9.932981 9.932981-20.768959 13.544974-32.507936h49.664903z m-198.659612 26.186949c-37.925926 0-67.724868-30.70194-67.724868-67.724868s30.70194-67.724868 67.724868-67.724868c37.925926 0 67.724868 30.70194 67.724867 67.724868s-30.70194 67.724868-67.724867 67.724868z" fill="#BDEDB7" p-id="10224"></path></svg>