<?xml version="1.0" standalone="no"?><!DOCTYPE svg PUBLIC "-//W3C//DTD SVG 1.1//EN" "http://www.w3.org/Graphics/SVG/1.1/DTD/svg11.dtd"><svg t="1534069866110" class="icon" style="" viewBox="0 0 1024 1024" version="1.1" xmlns="http://www.w3.org/2000/svg" p-id="9695" xmlns:xlink="http://www.w3.org/1999/xlink" width="50" height="50"><defs><style type="text/css"></style></defs><path d="M899.386243 601.396825l-92.10582-90.299823-187.823633-187.823633-118.292769 118.292769c-18.962963 18.962963-44.246914 29.798942-71.336861 29.798941s-52.373898-10.835979-71.33686-29.798941c-18.962963-18.962963-29.798942-44.246914-29.798942-71.336861s10.835979-52.373898 29.798942-71.336861L476.783069 180.599647l-39.731923-39.731922C340.430335 44.246914 183.308642 44.246914 86.687831 140.867725c-96.620811 96.620811-96.620811 253.742504 0 350.363316l39.731922 39.731922 8.126984-8.126984c20.768959-20.768959 47.858907-31.604938 75.851852-31.604938 28.895944 0 55.985891 10.835979 75.851852 31.604938 16.253968 16.253968 26.186949 36.119929 29.798942 57.791887 21.671958 3.611993 41.537919 14.447972 57.791887 29.798942 16.253968 16.253968 26.186949 36.119929 29.798942 57.791887 21.671958 3.611993 41.537919 14.447972 57.791887 29.798942 16.253968 16.253968 26.186949 36.119929 29.798942 57.791887 17.156966 2.708995 34.313933 9.932981 47.858906 21.671957l9.029982-9.029982 93.008819 90.299824c19.865961 19.865961 52.373898 19.865961 72.239859 0s19.865961-52.373898 0-72.239859l-93.008819-90.299824 19.865962-19.865961 93.008818 90.299824c19.865961 19.865961 52.373898 19.865961 72.239859 0s19.865961-52.373898 0-72.239859l-93.008819-90.299824 18.962963-18.962963 92.105821 90.299824c19.865961 19.865961 53.276896 19.865961 73.142857 0 23.477954-20.768959 23.477954-54.179894 2.708994-74.045856zM577.918871 835.273369c9.029982 36.119929 0 75.851852-27.992945 103.844797l-7.223986 7.223986 6.320988 6.320987c19.865961 19.865961 53.276896 19.865961 73.142857 0 19.865961-19.865961 19.865961-53.276896 0-73.142857L577.918871 835.273369z" fill="#BA7CD8" p-id="9696"></path><path d="M342.236332 730.525573c24.380952-24.380952 24.380952-63.209877 0-87.590829-24.380952-24.380952-63.209877-24.380952-87.590829 0 24.380952-24.380952 24.380952-63.209877 0-87.590829-24.380952-24.380952-63.209877-24.380952-87.590829 0l-46.05291 46.05291c-24.380952 24.380952-24.380952 63.209877 0 87.590829 24.380952 24.380952 63.209877 24.380952 87.590829 0-24.380952 24.380952-24.380952 63.209877 0 87.590829 24.380952 24.380952 63.209877 24.380952 87.590829 0l46.05291-46.05291z" fill="#D9BBEA" p-id="9697"></path><path d="M429.82716 818.116402c24.380952-24.380952 24.380952-63.209877 0-87.590829-24.380952-24.380952-63.209877-24.380952-87.590828 0L296.183422 776.578483c-24.380952 24.380952-24.380952 63.209877 0 87.590829 24.380952 24.380952 63.209877 24.380952 87.590828 0-24.380952 24.380952-24.380952 63.209877 0 87.590829 24.380952 24.380952 63.209877 24.380952 87.590829 0l46.05291-46.05291c24.380952-24.380952 24.380952-63.209877 0-87.590829-23.477954-23.477954-63.209877-23.477954-87.590829 0zM932.797178 140.867725C855.13933 63.209877 739.555556 47.858907 647.449735 93.911817c13.544974 5.417989 25.283951 12.641975 36.11993 23.477954 18.962963 18.962963 29.798942 44.246914 29.798942 71.33686s-10.835979 52.373898-29.798942 71.336861l-30.70194 30.70194L839.78836 478.589065l53.276896 52.373898 39.731922-39.731922c96.620811-96.620811 96.620811-253.742504 0-350.363316z" fill="#D9BBEA" p-id="9698"></path><path d="M651.061728 149.897707c-21.671958-21.671958-55.985891-21.671958-77.657848 0L390.998236 331.400353c-21.671958 21.671958-21.671958 55.985891 0 77.657848 21.671958 21.671958 55.985891 21.671958 77.657849 0L650.15873 227.555556c22.574956-21.671958 22.574956-55.985891 0.902998-77.657849z" fill="#D9BBEA" p-id="9699"></path></svg>