<?xml version="1.0" standalone="no"?><!DOCTYPE svg PUBLIC "-//W3C//DTD SVG 1.1//EN" "http://www.w3.org/Graphics/SVG/1.1/DTD/svg11.dtd"><svg t="1534069873680" class="icon" style="" viewBox="0 0 1024 1024" version="1.1" xmlns="http://www.w3.org/2000/svg" p-id="9872" xmlns:xlink="http://www.w3.org/1999/xlink" width="50" height="50"><defs><style type="text/css"></style></defs><path d="M510.194004 968.014109C261.869489 968.014109 61.40388 767.548501 61.40388 520.126984 61.40388 271.802469 261.869489 71.336861 510.194004 71.336861c247.421517 0 448.790123 200.465608 448.790123 448.790123-0.902998 247.421517-201.368607 447.887125-448.790123 447.887125z m86.68783-514.708994V280.832451s-34.313933-13.544974-86.68783-13.544973-86.687831 15.35097-86.687831 15.35097l173.375661 170.666667z m21.671958 81.269841L740.458554 412.670194s-14.447972-34.313933-51.4709-70.433862c-37.022928-37.022928-72.239859-50.567901-72.239859-50.567902l1.805997 242.906526z m-41.537919 72.239859H749.488536s13.544974-34.313933 13.544974-86.687831-15.35097-86.687831-15.35097-86.687831L577.015873 606.814815z m-81.269841 20.768959L617.650794 749.488536s34.313933-14.447972 70.433862-51.470899c37.022928-37.022928 50.567901-72.239859 50.567901-72.239859l-242.906525 1.805996z m-72.239859-41.537919V758.518519s34.313933 13.544974 86.687831 13.544973 86.687831-15.35097 86.68783-15.35097L423.506173 586.045855zM401.834215 505.679012L279.929453 627.583774s14.447972 34.313933 51.4709 70.433863c37.022928 37.022928 72.239859 50.567901 72.239859 50.567901L401.834215 505.679012z m41.537919-72.239859H270.899471s-13.544974 34.313933-13.544974 86.687831 15.35097 86.687831 15.35097 86.687831L443.372134 433.439153z m80.366843-21.671957L401.834215 289.862434s-34.313933 14.447972-70.433862 51.470899c-37.022928 37.022928-50.567901 72.239859-50.567902 72.239859l242.906526-1.805996z m0 0" fill="#BDEDB7" p-id="9873"></path><path d="M510.194004 984.268078C253.742504 984.268078 45.149912 775.675485 45.149912 520.126984 45.149912 263.675485 253.742504 55.082892 510.194004 55.082892s464.141093 208.592593 464.141093 464.141094c0 256.451499-208.592593 465.044092-464.141093 465.044092z m0-783.80247C334.109347 200.465608 191.435626 343.13933 191.435626 519.223986S334.109347 838.885362 510.194004 838.885362c176.084656 0 318.758377-142.673721 318.758377-318.758378S685.375661 200.465608 510.194004 200.465608z" fill="#58C44D" p-id="9874"></path></svg>