<?xml version="1.0" standalone="no"?><!DOCTYPE svg PUBLIC "-//W3C//DTD SVG 1.1//EN" "http://www.w3.org/Graphics/SVG/1.1/DTD/svg11.dtd"><svg t="1534069848976" class="icon" style="" viewBox="0 0 1024 1024" version="1.1" xmlns="http://www.w3.org/2000/svg" p-id="9344" xmlns:xlink="http://www.w3.org/1999/xlink" width="50" height="50"><defs><style type="text/css"></style></defs><path d="M858.751323 693.502646c-27.089947 17.156966-57.791887 26.186949-89.396826 27.089947-50.567901 0-95.717813-14.447972-130.031746-51.4709-33.410935 37.022928-78.560847 72.239859-128.225749 72.239859h-0.902998c-48.761905 0-95.717813-35.216931-129.128748-72.239859-33.410935 37.022928-80.366843 45.149912-130.031746 45.149912-30.70194 0.902998-61.40388-7.223986-88.493827-22.574956h-1.805997c-11.738977-7.223986-22.574956-15.35097-33.410935-24.380952v221.234568c0 40.634921 32.507937 74.045855 74.045856 74.045855h613.135802c19.865961 0 37.925926-8.126984 52.373898-21.671958 13.544974-13.544974 21.671958-32.507937 21.671958-52.373897V670.024691c-13.544974 8.126984-18.962963 16.253968-29.798942 23.477955z" fill="#FBD99F" p-id="9345"></path><path d="M942.730159 388.289242l-0.902999-5.41799-72.239858-232.070547c-12.641975-43.343915-53.276896-73.142857-98.426808-74.045855H255.548501c-46.05291-1.805996-87.590829 27.992945-100.232804 72.239859l-76.75485 234.779541-1.805997 8.126985c-5.417989 18.962963-8.126984 38.828924-8.126984 57.791887-0.902998 69.530864 35.216931 133.643739 93.911817 169.763668 27.089947 15.35097 57.791887 23.477954 88.493827 22.574956 49.664903 0 97.52381-21.671958 130.031746-58.694885 32.507937 37.022928 79.463845 58.694885 129.128748 58.694885h0.902998c49.664903 0 95.717813-21.671958 128.225749-58.694885 33.410935 37.022928 80.366843 58.694885 130.031746 58.694885 31.604938 0 63.209877-8.126984 90.299824-24.380952 57.791887-37.022928 92.10582-101.135802 92.10582-168.860671 0-20.768959-3.611993-40.634921-9.029982-60.500881z m-186.920635 33.410934H264.578483c-20.768959 0-37.022928-16.253968-37.022927-37.022927s16.253968-37.022928 37.022927-37.022928h490.328043c20.768959 0 37.022928 16.253968 37.022927 37.022928s-16.253968 37.022928-36.119929 37.022927z" fill="#FFC01D" p-id="9346"></path><path d="M76.75485 391.901235c0-0.902998 0.902998-1.805996 0.902998-3.611993-0.902998 0.902998-0.902998 2.708995-0.902998 3.611993z" fill="#FFC01D" p-id="9347"></path></svg>