<?xml version="1.0" standalone="no"?><!DOCTYPE svg PUBLIC "-//W3C//DTD SVG 1.1//EN" "http://www.w3.org/Graphics/SVG/1.1/DTD/svg11.dtd"><svg t="1534069881638" class="icon" style="" viewBox="0 0 1035 1024" version="1.1" xmlns="http://www.w3.org/2000/svg" p-id="10047" xmlns:xlink="http://www.w3.org/1999/xlink" width="50.537109375" height="50"><defs><style type="text/css"></style></defs><path d="M842.55884288 953.64828957H191.37598578c-59.60897195 0-108.37994837-48.77097643-108.37994837-108.37994838V194.08548523c0-59.60897195 48.77097643-108.37994837 108.37994837-108.37994838h651.1828571c59.60897195 0 108.37994837 48.77097643 108.37994837 108.37994838v651.18285596c0 59.60897195-48.77097643 108.37994837-108.37994837 108.37994838z" fill="#00BCB2" p-id="10048"></path><path d="M277.17677853 728.75989675V679.08575346c11.74116125-8.12849607 18.06332473-19.86965731 18.06332472-34.32031687V514.70949831h47.8678107v141.79709952c4.5158309 9.03166179 9.03166179 15.35382642 14.45065956 18.96649046 3.61266517 2.70949831 9.03166179 4.5158309 15.35382642 6.32216462v-207.72823496H278.07994539v-48.77097642h94.83245454v-55.99630678H279.88627683v-47.8678107h93.0261231v-32.51398428h47.8678107v32.51398428h71.35013206v47.8678107h-71.35013206v55.99630678h72.25329892v48.77097642h-72.25329892v71.3501332h72.25329892v47.86780956h-72.25329892v89.41345792h335.9778395v47.8678107H385.5567269c-18.96649045 0-33.41715115-2.70949831-44.25514553-8.12849607-6.32216349-2.70949831-13.54749383-8.12849607-22.57915563-16.25699214-8.12849607 8.12849607-15.35382642 13.54749383-21.6759899 16.25699214-4.5158309 1.80633259-10.83799438 4.5158309-19.86965731 6.32216349z m233.01688888-114.70211186v-78.5754624c0-15.35382642 4.5158309-26.1918208 13.54749384-34.32031687 10.83799438-9.93482866 25.28865507-14.45065955 43.35197866-14.45066069h128.24960569c17.16015901 0 30.7076517 4.5158309 41.54564722 12.6443281 9.93482866 8.12849607 15.35382642 19.86965731 15.35382641 35.2234826v76.76912981c0 34.32031687-18.96649045 52.3836416-55.99630677 52.38364274H565.28680846c-18.96649045 0-33.41715115-5.41899776-43.3519798-15.35382642-8.12849607-9.03166179-11.74116125-20.77282304-11.74116125-34.32031687z m3.61266518-141.79709952v-49.67414329c26.1918208-14.45065955 45.15831125-40.64248035 55.09313991-80.38179499h-54.18997419v-46.96464384h187.85857764c14.45065955 0 27.09498653 4.5158309 35.22348259 12.64432697 8.12849607 8.12849607 12.64432697 18.96649045 12.64432811 31.61081856v76.76912981c0 16.25699214-4.5158309 27.99815339-12.64432811 37.02981632-9.03166179 9.03166179-18.96649045 13.54749383-30.70765169 13.54749384H624.89577927v-46.96464498h61.41530454c10.83799438 0 15.35382642-5.41899776 15.35382528-17.16015787v-42.44881408c0-10.83799438-5.41899776-17.16015901-16.25699215-17.16015787h-62.31847025c-10.83799438 36.12664946-21.6759899 62.31847026-31.61081743 76.76912982-18.96649045 27.09498653-45.15831125 45.15831125-77.67229667 52.3836416z m63.22163598 142.70026524H688.11741639c9.93482866 0 15.35382642-6.32216349 15.35382528-18.06332472V552.64248035c0-11.74116125-5.41899776-17.16015901-16.25699214-17.16015786H576.12480285c-12.64432697 0-18.06332473 5.41899776-18.06332474 17.16015786v47.86781071c0 9.03166179 6.32216349 14.45065955 18.96649046 14.45065955z" fill="#B1E8E3" p-id="10049"></path></svg>