<?xml version="1.0" standalone="no"?><!DOCTYPE svg PUBLIC "-//W3C//DTD SVG 1.1//EN" "http://www.w3.org/Graphics/SVG/1.1/DTD/svg11.dtd"><svg t="1534069692185" class="icon" style="" viewBox="0 0 1024 1024" version="1.1" xmlns="http://www.w3.org/2000/svg" p-id="8991" xmlns:xlink="http://www.w3.org/1999/xlink" width="50" height="50"><defs><style type="text/css"></style></defs><path d="M739.555556 548.119929H803.66843v64.112875h-64.112874zM932.797178 749.488536V548.119929h-65.015873v64.112875H803.66843v72.239859h64.112875V749.488536zM602.299824 612.232804h72.239859v-64.112875H538.186949v394.61023h136.352734v-65.015873h-72.239859v-64.112875h72.239859V749.488536h-72.239859z" fill="#B1C1F2" p-id="8992"></path><path d="M674.539683 749.488536h65.015873v128.22575H803.66843v65.015873h129.128748v-65.015873h-65.015873v-64.112875H803.66843V684.472663H674.539683z" fill="#B1C1F2" p-id="8993"></path><path d="M215.816578 225.749559h129.128748v129.128748H215.816578zM215.816578 684.472663h129.128748v129.128748H215.816578z" fill="#7187E2" p-id="8994"></path><path d="M87.590829 942.730159h386.483245V548.119929H87.590829v394.61023z m64.112875-330.497355h257.354497v265.481482H151.703704V612.232804zM87.590829 483.104056h386.483245V97.52381H87.590829v385.580246z m64.112875-321.467372h257.354497v257.354498H151.703704V161.636684zM674.539683 225.749559H803.66843v129.128748H674.539683z" fill="#7187E2" p-id="8995"></path><path d="M538.186949 97.52381v386.483245h394.610229V97.52381H538.186949z m329.594356 321.467372H602.299824V161.636684h265.481481v257.354498z" fill="#7187E2" p-id="8996"></path></svg>