<?xml version="1.0" standalone="no"?><!DOCTYPE svg PUBLIC "-//W3C//DTD SVG 1.1//EN" "http://www.w3.org/Graphics/SVG/1.1/DTD/svg11.dtd"><svg t="1534069900833" class="icon" style="" viewBox="0 0 1024 1024" version="1.1" xmlns="http://www.w3.org/2000/svg" p-id="10402" xmlns:xlink="http://www.w3.org/1999/xlink" width="50" height="50"><defs><style type="text/css"></style></defs><path d="M279.296 279.296a42.7008 42.7008 0 0 0-29.952 12.3392 42.9568 42.9568 0 0 0-12.3904 30.0032c0 11.0592 4.5056 22.1184 12.3904 29.952 7.8336 7.68 18.8416 12.288 29.952 12.288 11.0592 0 22.1184-4.608 29.9008-12.3392a42.8544 42.8544 0 0 0 12.3904-29.9008 42.7008 42.7008 0 0 0-12.3904-30.0032 42.6496 42.6496 0 0 0-29.9008-12.3392z m330.0352 236.9536a34.048 34.048 0 0 0-24.0128 57.856 34.2016 34.2016 0 0 0 47.9744-0.0512 33.9968 33.9968 0 0 0 0-47.9232 34.1504 34.1504 0 0 0-23.9616-9.8816zM499.3536 363.8784c11.0592 0 22.1184-4.608 29.952-12.3392a43.1104 43.1104 0 0 0 12.288-30.0032 42.9056 42.9056 0 0 0-12.288-29.952 43.3664 43.3664 0 0 0-29.952-12.288 42.8032 42.8032 0 0 0-30.0032 12.3392 42.7008 42.7008 0 0 0 0 59.904c7.8848 7.7824 18.8416 12.3392 30.0032 12.3392zM858.0096 0H165.9392A166.144 166.144 0 0 0 0 166.4512v691.0976A166.144 166.144 0 0 0 165.888 1024h692.224c91.648 0 165.888-74.496 165.888-166.4512V166.4512A166.2464 166.2464 0 0 0 858.0096 0zM387.84 688.9472c-38.912 0-70.2464-7.936-109.2096-15.5648l-108.9536 54.4256 31.232-93.3888c-78.08-54.3744-124.7232-124.3648-124.7232-209.5616 0-147.8144 140.3392-264.0896 311.7056-264.0896 153.2928 0 287.5904 92.928 314.5216 218.112a259.4304 259.4304 0 0 0-30.0032-1.8944c-148.1216 0-265.0112 110.08-265.0112 245.7088 0 22.6304 3.5328 44.288 9.5744 65.0752a438.3232 438.3232 0 0 1-29.1328 1.1776z m451.84 105.1136l23.2448 77.6192-84.6336-46.7456c-30.8736 7.8336-61.952 15.6672-92.672 15.6672-146.8416 0-262.5024-101.12-262.5024-225.6896 0-124.2624 115.712-225.6384 262.5024-225.6384 138.752 0 262.1952 101.3248 262.1952 225.6384 0 70.1952-46.08 132.2496-108.1344 179.1488z m-61.0816-277.8112a33.9968 33.9968 0 0 0-23.9616 57.856 34.0992 34.0992 0 0 0 47.9232-0.0512 33.9968 33.9968 0 0 0 0-47.9232 34.0992 34.0992 0 0 0-23.9616-9.8816z" fill="#08BE14" p-id="10403"></path></svg>